<svg width="30" height="30" viewBox="0 0 30 30" fill="none" xmlns="http://www.w3.org/2000/svg">
<path d="M15 30C23.2843 30 30 23.2843 30 15C30 6.71573 23.2843 0 15 0C6.71573 0 0 6.71573 0 15C0 23.2843 6.71573 30 15 30Z" fill="#4176FA"/>
<path d="M20.3776 12.3911C16.045 12.3911 16.0394 16.7073 16.0394 16.7295C16.0394 16.7295 15.7426 21.051 20.3776 21.051C20.3776 21.051 24.2429 21.2708 24.2429 18.0434H22.2581C22.2581 18.0434 22.3239 19.2584 20.4436 19.2584C20.4436 19.2584 18.4588 19.3905 18.4588 17.2955H24.309C24.309 17.2955 24.9523 12.3911 20.3776 12.3911ZM18.4366 15.7834C18.4366 15.7834 18.6786 14.0459 20.4217 14.0459C22.1701 14.0459 22.1426 15.7834 22.1426 15.7834H18.4366ZM13.4776 14.673C13.4776 14.673 15.1985 14.5465 15.1985 12.5232C15.1985 10.5054 13.791 9.51556 12.004 9.51556H6.12598L6.12598 20.8144H12.0035C12.0035 20.8144 15.594 20.9245 15.594 17.4771C15.5942 17.4771 15.7482 14.673 13.4776 14.673ZM8.71591 11.5223H12.0037C12.0037 11.5223 12.8011 11.5223 12.8011 12.6988C12.8011 13.8753 12.3337 14.0459 11.8002 14.0459H8.71591V11.5223ZM11.839 18.8076H8.71591V15.7834H12.0037C12.0037 15.7834 13.1971 15.7725 13.1915 17.3394C13.1915 18.6592 12.3064 18.7966 11.839 18.8076ZM17.9473 10.1808V11.5721H22.61V10.1808H17.9473Z" fill="#F1F2F2"/>
</svg>
