<svg width="52" height="52" viewBox="0 0 52 52" fill="none" xmlns="http://www.w3.org/2000/svg">
<path d="M40.8181 10.3594L21.0269 25.0083V30.4436L34.8272 19.7056L40.8181 10.3594Z" fill="#D993F6"/>
<path d="M29.2671 31.4832L13.8564 19.3741L40.818 10.3594L29.2671 31.4832Z" fill="#F2F2FC"/>
<path d="M21.0269 25.0083L40.8181 10.3594L29.2672 31.4832L21.0269 25.0083Z" fill="#D8D9FB"/>
<path d="M11.1826 42.3516C11.0748 42.3515 10.9685 42.3269 10.8717 42.2797C10.7748 42.2325 10.6899 42.1639 10.6234 42.0792C10.5569 41.9944 10.5105 41.8956 10.4878 41.7903C10.465 41.685 10.4664 41.5759 10.4919 41.4713C10.6447 40.8477 10.8145 40.2444 10.9957 39.6781C11.0241 39.5891 11.0698 39.5067 11.1301 39.4354C11.1904 39.3641 11.2642 39.3054 11.3472 39.2626C11.4301 39.2198 11.5207 39.1938 11.6138 39.1861C11.7068 39.1783 11.8005 39.1889 11.8894 39.2174C11.9784 39.2458 12.0608 39.2915 12.1321 39.3518C12.2034 39.4121 12.2621 39.4858 12.3049 39.5688C12.3477 39.6518 12.3737 39.7424 12.3814 39.8355C12.3892 39.9285 12.3786 40.0222 12.3501 40.1111C12.1791 40.6466 12.0186 41.2182 11.8732 41.8101C11.8353 41.9646 11.7466 42.1019 11.6214 42.2001C11.4962 42.2983 11.3417 42.3516 11.1826 42.3516Z" fill="#D8D9FB"/>
<path d="M12.7523 37.919C12.6309 37.9188 12.5116 37.8876 12.4057 37.8283C12.2999 37.769 12.2109 37.6836 12.1474 37.5802C12.0838 37.4768 12.0477 37.3589 12.0426 37.2377C12.0375 37.1164 12.0635 36.9959 12.1181 36.8875C12.7275 35.5919 13.603 34.4393 14.6876 33.5047C14.7096 31.1236 16.2281 29.1659 16.3098 29.0627C16.4269 28.9164 16.597 28.8222 16.7832 28.8007C16.9693 28.7791 17.1564 28.832 17.3039 28.9477C17.4513 29.0634 17.547 29.2326 17.5703 29.4186C17.5936 29.6045 17.5425 29.7921 17.4282 29.9406C16.8492 30.735 16.4375 31.6386 16.218 32.5967C17.0844 32.2411 18.0461 32.1913 18.9447 32.4553C20.3378 32.8847 21.1949 34.0653 21.0292 35.3263C20.977 35.9509 20.7103 36.5381 20.2744 36.9884C19.8385 37.4387 19.2601 37.7243 18.6376 37.7967C17.8708 37.8623 17.1039 37.6724 16.4563 37.2566C15.8088 36.8407 15.317 36.2223 15.0577 35.4977C15.0201 35.4021 14.9853 35.3073 14.9533 35.2133C14.3245 35.907 13.7979 36.6867 13.3893 37.529C13.3297 37.6466 13.2385 37.7454 13.1261 37.8143C13.0136 37.8832 12.8841 37.9194 12.7523 37.919ZM16.1648 34.218C16.2075 34.4758 16.278 34.7282 16.3752 34.9708C16.5173 35.4036 16.7986 35.7773 17.1753 36.0335C17.552 36.2898 18.0029 36.4142 18.4576 36.3874C18.7676 36.3512 19.0545 36.2058 19.267 35.9774C19.4796 35.749 19.604 35.4524 19.6179 35.1406C19.6914 34.5808 19.2417 34.0352 18.5243 33.8138C18.1248 33.7124 17.7084 33.696 17.3022 33.7656C16.896 33.8353 16.5089 33.9894 16.166 34.218H16.1648Z" fill="#D8D9FB"/>
</svg>
