<svg width="32" height="32" viewBox="0 0 32 32" fill="none" xmlns="http://www.w3.org/2000/svg">
<path d="M16 30.8875C24.2222 30.8875 30.8875 24.2222 30.8875 16C30.8875 7.77788 24.2222 1.11252 16 1.11252C7.77791 1.11252 1.11255 7.77788 1.11255 16C1.11255 24.2222 7.77791 30.8875 16 30.8875Z" fill="#BC2A8D"/>
<path d="M24.0688 16.1249C24.0688 17.2624 24.0688 18.4062 24.0688 19.5437C24.0688 21.4749 23.1313 22.8124 21.4501 23.6812C20.7626 24.0374 20.0188 24.1937 19.2438 24.1937C17.0501 24.1937 14.8501 24.2312 12.6563 24.1812C10.8938 24.1437 9.47509 23.3687 8.52509 21.8499C8.13134 21.2124 7.93759 20.5124 7.93134 19.7687C7.93134 17.3624 7.91884 14.9499 7.93134 12.5437C7.94384 10.8937 8.75009 9.67495 10.1188 8.81245C10.9313 8.3062 11.8313 8.07495 12.7876 8.0687C14.9251 8.0687 17.0563 8.0562 19.2001 8.0687C20.8501 8.0812 22.2188 8.72495 23.2313 10.0499C23.7876 10.7812 24.0626 11.6312 24.0626 12.5562C24.0688 13.7374 24.0688 14.9312 24.0688 16.1249ZM22.8688 16.1374C22.8688 14.9437 22.8688 13.7374 22.8688 12.5437C22.8688 11.8937 22.6751 11.2999 22.2938 10.7874C21.5501 9.7812 20.5188 9.28745 19.2876 9.27495C17.1188 9.24995 14.9501 9.2687 12.7813 9.2687C12.1063 9.2687 11.4688 9.42495 10.8876 9.76245C9.76259 10.4124 9.13759 11.3624 9.14384 12.6874C9.15009 15.0187 9.14384 17.3624 9.14384 19.6999C9.14384 20.3562 9.33759 20.9562 9.72509 21.4749C10.4688 22.4812 11.5001 22.9687 12.7313 22.9812C14.9126 23.0062 17.0938 22.9874 19.2688 22.9874C19.7626 22.9874 20.2438 22.8812 20.7063 22.6937C21.9313 22.1999 22.9126 21.0562 22.8751 19.5312C22.8438 18.3999 22.8688 17.2687 22.8688 16.1374Z" fill="white"/>
<path d="M16 19.5687C13.8938 19.5624 12.2125 17.8812 12.2188 15.7874C12.225 13.7437 13.9375 12.0812 16.025 12.0874C18.1125 12.0937 19.8063 13.7812 19.8 15.8499C19.8 17.9062 18.1 19.5749 16 19.5687ZM16.0313 13.2874C14.6 13.2874 13.4438 14.4187 13.4313 15.8187C13.4313 17.2124 14.5875 18.3562 16 18.3624C17.4313 18.3624 18.6 17.2312 18.6063 15.8374C18.6063 14.4374 17.45 13.2874 16.0313 13.2874Z" fill="white"/>
<path d="M21.0438 11.7811C21.0438 12.2374 20.6813 12.6124 20.2375 12.6061C19.8 12.6061 19.4438 12.2249 19.45 11.7686C19.45 11.3186 19.8125 10.9499 20.25 10.9499C20.6875 10.9499 21.0438 11.3249 21.0438 11.7811Z" fill="white"/>
</svg>
