<svg width="52" height="52" viewBox="0 0 52 52" fill="none" xmlns="http://www.w3.org/2000/svg">
<path d="M13.7617 10.3594H36.8026V41.6406H13.7617V10.3594Z" fill="#F2F2FC"/>
<path d="M15.2085 14.9528H12.314C11.9638 14.9528 11.628 15.0919 11.3804 15.3395C11.1328 15.5871 10.9937 15.923 10.9937 16.2731C10.9937 16.6233 11.1328 16.9591 11.3804 17.2067C11.628 17.4543 11.9638 17.5934 12.314 17.5934H15.2085C15.5587 17.5934 15.8945 17.4543 16.1421 17.2067C16.3897 16.9591 16.5288 16.6233 16.5288 16.2731C16.5288 15.923 16.3897 15.5871 16.1421 15.3395C15.8945 15.0919 15.5587 14.9528 15.2085 14.9528Z" fill="#FEDD55"/>
<path d="M15.2085 21.4374H12.314C11.9638 21.4374 11.628 21.5765 11.3804 21.8241C11.1328 22.0717 10.9937 22.4075 10.9937 22.7577C10.9937 23.1079 11.1328 23.4437 11.3804 23.6913C11.628 23.9389 11.9638 24.078 12.314 24.078H15.2085C15.5587 24.078 15.8945 23.9389 16.1421 23.6913C16.3897 23.4437 16.5288 23.1079 16.5288 22.7577C16.5288 22.4075 16.3897 22.0717 16.1421 21.8241C15.8945 21.5765 15.5587 21.4374 15.2085 21.4374Z" fill="#FEDD55"/>
<path d="M15.2085 27.9219H12.314C11.9638 27.9219 11.628 28.061 11.3804 28.3086C11.1328 28.5563 10.9937 28.8921 10.9937 29.2422C10.9937 29.5924 11.1328 29.9282 11.3804 30.1758C11.628 30.4235 11.9638 30.5626 12.314 30.5626H15.2085C15.5587 30.5626 15.8945 30.4235 16.1421 30.1758C16.3897 29.9282 16.5288 29.5924 16.5288 29.2422C16.5288 28.8921 16.3897 28.5563 16.1421 28.3086C15.8945 28.061 15.5587 27.9219 15.2085 27.9219Z" fill="#FEDD55"/>
<path d="M15.2085 34.4065H12.314C11.9638 34.4065 11.628 34.5456 11.3804 34.7932C11.1328 35.0408 10.9937 35.3766 10.9937 35.7268C10.9937 36.077 11.1328 36.4128 11.3804 36.6604C11.628 36.908 11.9638 37.0471 12.314 37.0471H15.2085C15.5587 37.0471 15.8945 36.908 16.1421 36.6604C16.3897 36.4128 16.5288 36.077 16.5288 35.7268C16.5288 35.3766 16.3897 35.0408 16.1421 34.7932C15.8945 34.5456 15.5587 34.4065 15.2085 34.4065Z" fill="#FEDD55"/>
<path d="M20.8203 14.9528H31.3828V19.9859H20.8203V14.9528Z" fill="#F7598F"/>
<path d="M41.0053 39.0508H36.8022V33.5156H41.0053L38.9038 36.2834L41.0053 39.0508Z" fill="#83E786"/>
</svg>
