<svg width="31" height="30" viewBox="0 0 31 30" fill="none" xmlns="http://www.w3.org/2000/svg">
<path d="M15.5 30C24.0604 30 31 23.2843 31 15C31 6.71573 24.0604 0 15.5 0C6.93959 0 0 6.71573 0 15C0 23.2843 6.93959 30 15.5 30Z" fill="#4D76A1"/>
<path fill-rule="evenodd" clip-rule="evenodd" d="M14.9146 21.5788H16.1311C16.1311 21.5788 16.4986 21.5398 16.6862 21.3441C16.8589 21.1644 16.8534 20.8269 16.8534 20.8269C16.8534 20.8269 16.8296 19.2472 17.5872 19.0146C18.3341 18.7854 19.2931 20.5414 20.3096 21.2165C21.0783 21.7275 21.6624 21.6155 21.6624 21.6155L24.3804 21.5788C24.3804 21.5788 25.8023 21.4941 25.1281 20.4122C25.0728 20.3237 24.7355 19.6119 23.1072 18.1493C21.403 16.6185 21.6312 16.8661 23.6841 14.2182C24.9344 12.6055 25.4342 11.621 25.2781 11.1993C25.1292 10.7977 24.2097 10.9039 24.2097 10.9039L21.1493 10.9223C21.1493 10.9223 20.9225 10.8924 20.7542 10.9897C20.5898 11.0852 20.484 11.3076 20.484 11.3076C20.484 11.3076 19.9996 12.5555 19.3536 13.6168C17.9909 15.8562 17.4461 15.9744 17.2234 15.8353C16.7053 15.5112 16.8346 14.5334 16.8346 13.8387C16.8346 11.6686 17.1747 10.7638 16.1723 10.5295C15.8396 10.4517 15.5948 10.4004 14.7441 10.3921C13.6521 10.3811 12.7279 10.3953 12.2046 10.6434C11.8565 10.8084 11.5879 11.1761 11.7515 11.1972C11.9537 11.2234 12.4118 11.3167 12.6547 11.6368C12.9683 12.0496 12.9572 12.9769 12.9572 12.9769C12.9572 12.9769 13.1374 15.5316 12.5364 15.849C12.1239 16.0666 11.5581 15.6222 10.3432 13.5906C9.72064 12.5499 9.25065 11.3996 9.25065 11.3996C9.25065 11.3996 9.16003 11.1846 8.99839 11.0696C8.80221 10.9303 8.52812 10.8859 8.52812 10.8859L5.62004 10.9044C5.62004 10.9044 5.18348 10.9162 5.02323 11.0999C4.88066 11.2632 5.0119 11.6012 5.0119 11.6012C5.0119 11.6012 7.28863 16.7559 9.86653 19.3536C12.2303 21.7353 14.9146 21.5788 14.9146 21.5788Z" fill="white"/>
</svg>
